# xmcd
#
# Track frame offsets: 
#        150
#        14278
#        27843
#        45230
#        62116
#        83554
#        100753
#        111425
#        129206
#        143742
#        161482
#        176432
#        187782
#        199653
#        214225
#        243422
#        265499
#        286959
#        311125
#
# Disc length: 4645 seconds
#
# Revision: 1
# Processed by: cddbd v1.5.2PL0 Copyright (c) Steve Scherf et al.
# Submitted via: ExactAudioCopy v0.99pb5
#
DISCID=00122313
DTITLE=Ариэль -  Grand Collection
DYEAR=2005
DGENRE=Retro
TTITLE0=Зимы и весны
TTITLE1=Маленькая история
TTITLE2=На острове Буяне
TTITLE3=Уж ты, Порушка-Параня
TTITLE4=Уходишь ты
TTITLE5=Комната смеха
TTITLE6=По полю, полю
TTITLE7=Где ждет любовь
TTITLE8=Частушки
TTITLE9=Расскажу тебе, кума
TTITLE10=Старая пластинка
TTITLE11=Нахлебалася пресного молока
TTITLE12=Баба-Яга
TTITLE13=Я на камушке сижу
TTITLE14=На улице дождик
TTITLE15=Долина-долинушка
TTITLE16=Лебедушка
TTITLE17=На гoре, на горенке
TTITLE18=Парафраз на тему русской народной песни "Отдавали молоду"
EXTD=
EXTT0=
EXTT1=
EXTT2=
EXTT3=
EXTT4=
EXTT5=
EXTT6=
EXTT7=
EXTT8=
EXTT9=
EXTT10=
EXTT11=
EXTT12=
EXTT13=
EXTT14=
EXTT15=
EXTT16=
EXTT17=
EXTT18=
PLAYORDER=
